<?xml version="1.0" encoding="us-ascii" standalone="no"?><svg xmlns="http://www.w3.org/2000/svg" xmlns:xlink="http://www.w3.org/1999/xlink" contentStyleType="text/css" height="339.5833px" preserveAspectRatio="none" style="width:1612px;height:339px;" version="1.1" viewBox="0 0 1612 339" width="1612.5px" zoomAndPan="magnify"><defs><linearGradient id="goha2vuj8nfp90" x1="50%" x2="50%" y1="0%" y2="100%"><stop offset="0%" stop-color="#F18E3E"/><stop offset="100%" stop-color="#EC7211"/></linearGradient></defs><g><!--cluster Treatment--><g id="cluster_Treatment"><path d="M782.2917,167.7083 L872.9167,167.7083 A6.25,6.25 0 0 1 877.0833,171.875 L884.375,198.9258 L1601.0417,198.9258 A4.1667,4.1667 0 0 1 1605.2083,203.0924 L1605.2083,328.125 A4.1667,4.1667 0 0 1 1601.0417,332.2917 L782.2917,332.2917 A4.1667,4.1667 0 0 1 778.125,328.125 L778.125,171.875 A4.1667,4.1667 0 0 1 782.2917,167.7083 " fill="none" style="stroke:#4E5D6C;stroke-width:2.0833333333333335;"/><line style="stroke:#4E5D6C;stroke-width:2.0833333333333335;" x1="778.125" x2="884.375" y1="198.9258" y2="198.9258"/><text fill="#4E5D6C" font-family="Verdana" font-size="12.5" font-weight="bold" lengthAdjust="spacing" textLength="82.2917" x="787.5" y="186.6028">Treatment</text></g><!--cluster Setup--><g id="cluster_Setup"><path d="M10.4167,167.7083 L63.5417,167.7083 A6.25,6.25 0 0 1 67.7083,171.875 L75,198.9258 L748.9583,198.9258 A4.1667,4.1667 0 0 1 753.125,203.0924 L753.125,328.125 A4.1667,4.1667 0 0 1 748.9583,332.2917 L10.4167,332.2917 A4.1667,4.1667 0 0 1 6.25,328.125 L6.25,171.875 A4.1667,4.1667 0 0 1 10.4167,167.7083 " fill="none" style="stroke:#4E5D6C;stroke-width:2.0833333333333335;"/><line style="stroke:#4E5D6C;stroke-width:2.0833333333333335;" x1="6.25" x2="75" y1="198.9258" y2="198.9258"/><text fill="#4E5D6C" font-family="Verdana" font-size="12.5" font-weight="bold" lengthAdjust="spacing" textLength="44.7917" x="15.625" y="186.6028">Setup</text></g><g id="elem_UC3"><ellipse cx="1257.5111" cy="276.976" fill="url(#goha2vuj8nfp90)" rx="76.782" ry="38.4343" style="stroke:#EC7211;stroke-width:2.0833333333333335;"/><text fill="#FFFFFF" font-family="Verdana" font-size="12.5" lengthAdjust="spacing" textLength="77.0833" x="1216.8861" y="266.7363">Use Case 3:</text><text fill="#FFFFFF" font-family="Verdana" font-size="12.5" lengthAdjust="spacing" textLength="51.0417" x="1231.9903" y="291.7038">Analysis</text></g><g id="elem_UC4"><ellipse cx="1511.6778" cy="276.976" fill="url(#goha2vuj8nfp90)" rx="76.782" ry="38.4343" style="stroke:#EC7211;stroke-width:2.0833333333333335;"/><text fill="#FFFFFF" font-family="Verdana" font-size="12.5" lengthAdjust="spacing" textLength="77.0833" x="1471.0528" y="266.7363">Use Case 4:</text><text fill="#FFFFFF" font-family="Verdana" font-size="12.5" lengthAdjust="spacing" textLength="45.8333" x="1488.7611" y="291.7038">Shocks</text></g><g id="elem_UC5"><ellipse cx="878.2027" cy="276.976" fill="url(#goha2vuj8nfp90)" rx="83.4111" ry="38.4343" style="stroke:#EC7211;stroke-width:2.0833333333333335;"/><text fill="#FFFFFF" font-family="Verdana" font-size="12.5" lengthAdjust="spacing" textLength="77.0833" x="837.5777" y="266.7363">Use Case 5:</text><text fill="#FFFFFF" font-family="Verdana" font-size="12.5" lengthAdjust="spacing" textLength="90.625" x="832.8902" y="291.7038">Compressions</text></g><g id="elem_UC1"><ellipse cx="98.9621" cy="276.976" fill="url(#goha2vuj8nfp90)" rx="76.0454" ry="38.4343" style="stroke:#EC7211;stroke-width:2.0833333333333335;"/><text fill="#FFFFFF" font-family="Verdana" font-size="12.5" lengthAdjust="spacing" textLength="76.0417" x="58.8579" y="266.7363">Use Case 1:</text><text fill="#FFFFFF" font-family="Verdana" font-size="12.5" lengthAdjust="spacing" textLength="60.4167" x="68.7537" y="291.7038">Power On</text></g><g id="elem_UC11"><ellipse cx="377.0411" cy="276.976" fill="url(#goha2vuj8nfp90)" rx="102.5619" ry="38.4343" style="stroke:#EC7211;stroke-width:2.0833333333333335;"/><text fill="#FFFFFF" font-family="Verdana" font-size="12.5" lengthAdjust="spacing" textLength="86.4583" x="331.7286" y="266.7363">Use Case 1.1:</text><text fill="#FFFFFF" font-family="Verdana" font-size="12.5" lengthAdjust="spacing" textLength="117.7083" x="318.1869" y="291.7038">Preliminary Checks</text></g><g id="elem_UC2"><ellipse cx="626.0734" cy="276.976" fill="url(#goha2vuj8nfp90)" rx="109.9276" ry="38.4343" style="stroke:#EC7211;stroke-width:2.0833333333333335;"/><text fill="#FFFFFF" font-family="Verdana" font-size="12.5" lengthAdjust="spacing" textLength="77.0833" x="585.4484" y="266.7363">Use Case 2:</text><text fill="#FFFFFF" font-family="Verdana" font-size="12.5" lengthAdjust="spacing" textLength="128.125" x="562.0109" y="291.7038">Electrode Placement</text></g><!--entity User--><g id="elem_User"><ellipse cx="543.75" cy="14.5833" fill="url(#goha2vuj8nfp90)" rx="8.3333" ry="8.3333" style="stroke:#EC7211;stroke-width:1.0416666666666667;"/><path d="M543.75,22.9167 L543.75,51.0417 M530.2083,31.25 L557.2917,31.25 M543.75,51.0417 L530.2083,66.6667 M543.75,51.0417 L557.2917,66.6667 " fill="none" style="stroke:#EC7211;stroke-width:1.0416666666666667;"/><text fill="#4E5D6C" font-family="Verdana" font-size="12.5" lengthAdjust="spacing" textLength="30.2083" x="528.6458" y="85.5611">User</text></g><!--entity Patient--><g id="elem_Patient"><ellipse cx="1148.9583" cy="14.5833" fill="url(#goha2vuj8nfp90)" rx="8.3333" ry="8.3333" style="stroke:#EC7211;stroke-width:1.0416666666666667;"/><path d="M1148.9583,22.9167 L1148.9583,51.0417 M1135.4167,31.25 L1162.5,31.25 M1148.9583,51.0417 L1135.4167,66.6667 M1148.9583,51.0417 L1162.5,66.6667 " fill="none" style="stroke:#EC7211;stroke-width:1.0416666666666667;"/><text fill="#4E5D6C" font-family="Verdana" font-size="12.5" lengthAdjust="spacing" textLength="40.625" x="1128.6458" y="85.5611">Patient</text></g><!--link User to UC1--><g id="link_User_UC1"><path d="M523.399,56.1073 C475.1656,69.7927 350.8583,107.6823 256.25,159.375 C212.5396,183.2573 172.162,214.0291 141.4974,239.3916 " fill="none" id="User-to-UC1" style="stroke:#EC7211;stroke-width:3.125;"/><polygon fill="#EC7211" points="136.6813,243.375,146.561,240.6107,140.6947,240.0555,141.2498,234.1892,136.6813,243.375" style="stroke:#EC7211;stroke-width:3.125;"/></g><!--link User to UC11--><g id="link_User_UC11"><path d="M523.3927,59.076 C498.3521,70.576 456.1156,93.3 431.25,125 C405.0302,158.426 392.1707,199.5232 384.9718,232.2263 " fill="none" id="User-to-UC11" style="stroke:#EC7211;stroke-width:3.125;"/><polygon fill="#EC7211" points="383.6281,238.3302,389.7128,230.0702,384.7478,233.2437,381.5744,228.2787,383.6281,238.3302" style="stroke:#EC7211;stroke-width:3.125;"/></g><!--link User to UC4--><g id="link_User_UC4"><path d="M564.3177,57.2854 C623.7396,76.4552 801.1167,131.0396 953.125,151.0417 C997.0844,156.826 1310.0833,145.1594 1352.0833,159.375 C1401.4583,176.0865 1443.8265,209.8069 1473.8057,237.9215 " fill="none" id="User-to-UC4" style="stroke:#EC7211;stroke-width:3.125;"/><polygon fill="#EC7211" points="1478.3646,242.1969,1474.3765,232.7445,1474.5655,238.6341,1468.676,238.8231,1478.3646,242.1969" style="stroke:#EC7211;stroke-width:3.125;"/></g><!--link User to UC5--><g id="link_User_UC5"><path d="M564.1177,58.8896 C602.7854,75.2458 688.7188,113.8615 753.125,159.375 C787.4281,183.6156 817.6431,212.2221 841.7056,236.97 " fill="none" id="User-to-UC5" style="stroke:#EC7211;stroke-width:3.125;"/><polygon fill="#EC7211" points="846.0625,241.451,842.5145,231.8249,842.4317,237.7168,836.5398,237.6341,846.0625,241.451" style="stroke:#EC7211;stroke-width:3.125;"/></g><!--link Patient to UC2--><g id="link_Patient_UC2"><path d="M1126.8229,93.7813 C1113.4271,115.0771 1094.1979,138.7615 1069.7917,151.0417 C1040.8333,165.6125 808.674,148.5188 778.125,159.375 C731.7177,175.8677 692.6141,207.9218 664.1037,235.7124 " fill="none" id="Patient-to-UC2" style="stroke:#EC7211;stroke-width:3.125;"/><polygon fill="#EC7211" points="659.6281,240.075,669.2498,236.5149,663.3578,236.4395,663.4331,230.5475,659.6281,240.075" style="stroke:#EC7211;stroke-width:3.125;"/></g><!--link Patient to UC4--><g id="link_Patient_UC4"><path d="M1174.6146,62.824 C1213.7917,81.926 1290.4583,120.5771 1352.0833,159.375 C1394.1563,185.8677 1434.754,215.9535 1466.3373,240.3795 " fill="none" id="Patient-to-UC4" style="stroke:#EC7211;stroke-width:3.125;"/><polygon fill="#EC7211" points="1471.2813,244.2031,1466.4144,235.1718,1467.1613,241.0168,1461.3163,241.7637,1471.2813,244.2031" style="stroke:#EC7211;stroke-width:3.125;"/></g><!--link Patient to UC5--><g id="link_Patient_UC5"><path d="M1174.625,84.7042 C1186.6563,105.1802 1195.6979,131.0333 1182.2917,151.0417 C1182.0625,151.3792 1034.2077,212.0444 945.4035,248.4593 " fill="none" id="Patient-to-UC5" style="stroke:#EC7211;stroke-width:3.125;"/><polygon fill="#EC7211" points="939.6208,250.8305,949.8757,251.1288,944.4398,248.8545,946.7141,243.4185,939.6208,250.8305" style="stroke:#EC7211;stroke-width:3.125;"/></g><!--link Patient to UC11--><g id="link_Patient_UC11"><path d="M1123.3229,75.1677 C1094.4375,102.2792 1048.7083,143.0833 1027.0833,151.0417 C971.9,171.3552 552.2646,136.9208 497.9167,159.375 C458.299,175.7438 428.1941,206.8641 406.4566,234.5849 " fill="none" id="Patient-to-UC11" style="stroke:#EC7211;stroke-width:3.125;"/><polygon fill="#EC7211" points="402.6,239.5031,411.6638,234.6969,405.8139,235.4046,405.1062,229.5547,402.6,239.5031" style="stroke:#EC7211;stroke-width:3.125;"/></g><!--link UC1 to UC2--><g id="link_UC1_UC2"><path d="M132.0427,242.3375 C161.5542,214.0073 207.5229,176.051 256.25,159.375 C360.5073,123.6948 402.2708,114.299 504.1667,156.25 C544.8052,172.9813 575.3106,205.5559 597.0585,234.3923 " fill="none" id="UC1-to-UC2" style="stroke:#EC7211;stroke-width:3.125;stroke-dasharray:7.0,7.0;"/><polygon fill="#EC7211" points="600.8219,239.3823,598.5035,229.3884,597.6858,235.224,591.8502,234.4062,600.8219,239.3823" style="stroke:#EC7211;stroke-width:3.125;"/><text fill="#4E5D6C" font-family="Verdana" font-size="12.5" lengthAdjust="spacing" textLength="52.0833" x="445.8333" y="142.8528">includes</text></g><!--link UC1 to UC11--><g id="link_UC1_UC11"><path d="M175.325,277.0833 C205.8792,277.0833 235.2906,277.0833 268.0615,277.0833 " fill="none" id="UC1-to-UC11" style="stroke:#EC7211;stroke-width:3.125;stroke-dasharray:7.0,7.0;"/><polygon fill="#EC7211" points="274.3115,277.0833,264.9365,272.9167,269.1031,277.0833,264.9365,281.25,274.3115,277.0833" style="stroke:#EC7211;stroke-width:3.125;"/><text fill="#4E5D6C" font-family="Verdana" font-size="12.5" lengthAdjust="spacing" textLength="51.0417" x="199.2188" y="265.7694">extends</text></g><!--link UC2 to UC3--><g id="link_UC2_UC3"><path d="M659.7688,240.2729 C688.199,212.1344 731.599,175.5167 778.125,159.375 C862.7615,130.0104 1102.8229,112.9427 1181.25,156.25 C1212.9271,173.7438 1230.852,204.7966 1242.4249,233.2279 " fill="none" id="UC2-to-UC3" style="stroke:#EC7211;stroke-width:3.125;stroke-dasharray:7.0,7.0;"/><polygon fill="#EC7211" points="1244.7813,239.0167,1245.106,228.7626,1242.8176,234.1927,1237.3876,231.9043,1244.7813,239.0167" style="stroke:#EC7211;stroke-width:3.125;"/><text fill="#4E5D6C" font-family="Verdana" font-size="12.5" lengthAdjust="spacing" textLength="52.0833" x="1122.9167" y="142.8528">includes</text></g><!--link UC4 to UC3--><g id="link_UC4_UC3"><path d="M1434.5729,277.0833 C1402.6771,277.0833 1372.0104,277.0833 1340.1458,277.0833 " fill="none" id="UC4-to-UC3" style="stroke:#EC7211;stroke-width:3.125;stroke-dasharray:7.0,7.0;"/><polygon fill="#EC7211" points="1333.8958,277.0833,1343.2708,281.25,1339.1042,277.0833,1343.2708,272.9167,1333.8958,277.0833" style="stroke:#EC7211;stroke-width:3.125;"/><text fill="#4E5D6C" font-family="Verdana" font-size="12.5" lengthAdjust="spacing" textLength="52.0833" x="1358.3333" y="265.7694">includes</text></g><!--link UC3 to UC4--><g id="link_UC3_UC4"><path d="M1320.4271,299.3526 C1330.875,302.2147 1341.6979,304.6882 1352.0833,306.25 C1380.4688,310.5181 1388.2813,310.5181 1416.6667,306.25 C1427.0521,304.6882 1431.8471,303.866 1442.295,301.0039 " fill="none" id="UC3-to-UC4" style="stroke:#EC7211;stroke-width:3.125;stroke-dasharray:7.0,7.0;"/><polygon fill="#EC7211" points="1448.3229,299.3526,1438.1802,297.8109,1443.2997,300.7287,1440.3819,305.8481,1448.3229,299.3526" style="stroke:#EC7211;stroke-width:3.125;"/><text fill="#4E5D6C" font-family="Verdana" font-size="12.5" lengthAdjust="spacing" textLength="52.0833" x="1358.3333" y="298.0611">includes</text></g><!--link UC3 to UC5--><g id="link_UC3_UC5"><path d="M1180.5938,277.0833 C1117.1354,277.0833 1033.3708,277.0833 968.0542,277.0833 " fill="none" id="UC3-to-UC5" style="stroke:#EC7211;stroke-width:3.125;stroke-dasharray:7.0,7.0;"/><polygon fill="#EC7211" points="961.8042,277.0833,971.1792,281.25,967.0125,277.0833,971.1792,272.9167,961.8042,277.0833" style="stroke:#EC7211;stroke-width:3.125;"/><text fill="#4E5D6C" font-family="Verdana" font-size="12.5" lengthAdjust="spacing" textLength="52.0833" x="1045.0521" y="265.7694">includes</text></g><!--link UC5 to UC3--><g id="link_UC5_UC3"><path d="M952.0417,295.0078 C995.9354,303.5635 1052.7396,311.0068 1103.3854,306.25 C1131.1354,303.6434 1155.2171,299.6843 1181.4567,294.3913 " fill="none" id="UC5-to-UC3" style="stroke:#EC7211;stroke-width:3.125;stroke-dasharray:7.0,7.0;"/><polygon fill="#EC7211" points="1187.5833,293.1555,1177.5695,290.9249,1182.4778,294.1854,1179.2173,299.0937,1187.5833,293.1555" style="stroke:#EC7211;stroke-width:3.125;"/><text fill="#4E5D6C" font-family="Verdana" font-size="12.5" lengthAdjust="spacing" textLength="52.0833" x="1045.0521" y="298.0611">includes</text></g><!--link UC4 to UC5--><g id="link_UC4_UC5"><path d="M1477.875,242.2385 C1447.9375,213.8458 1401.3438,175.8552 1352.0833,159.375 C1246.0313,123.8948 975.2615,149.0021 961.4583,156.25 C928.5177,173.5469 908.6782,204.748 895.448,233.2387 " fill="none" id="UC4-to-UC5" style="stroke:#EC7211;stroke-width:3.125;stroke-dasharray:7.0,7.0;"/><polygon fill="#EC7211" points="892.8156,238.9073,900.5432,232.1593,895.0092,234.1834,892.9851,228.6495,892.8156,238.9073" style="stroke:#EC7211;stroke-width:3.125;"/><text fill="#4E5D6C" font-family="Verdana" font-size="12.5" lengthAdjust="spacing" textLength="52.0833" x="967.7083" y="142.8528">includes</text></g><!--SRC=[RP2nReCm54LtVyLhfZ8G2J2BXqeLwboa95iNopm5As0ZsoYDelnxxI8211RBx-ZSvok_kHfR17wriJPSdP6GZeiBFoCS3NBNed9tqbiKt2BiJluemYrZyAC-5MzkLjeTS0llfoABDamQp4EjnUNfqIql3rwXsywWjLAhfvr7v36rEg3hkpkPSad8bVgA1hxLc4cYkR4V78EDRANYvWP5ZRC-oK9FW_pLe716LmXbmmM6RnZjDFHXNZSCulW3VFvbV9dfSim9AxcJVkD8qXMXAx9E-MVy0Vl_3KmgqVGLseab2SDVXweAB1rODlVe1ii6HZTOlf5Ti7orR-hy1m00]--></g></svg>